<svg xmlns="http://www.w3.org/2000/svg" version="1.1" xmlns:xlink="http://www.w3.org/1999/xlink" xmlns:svgjs="http://svgjs.dev/svgjs" width="1000" height="406" viewBox="0 0 1000 406"><g transform="matrix(1,0,0,1,-0.6060568066700966,-0.37854484731533944)"><svg viewBox="0 0 396 161" data-background-color="#ffffff" preserveAspectRatio="xMidYMid meet" height="406" width="1000" xmlns="http://www.w3.org/2000/svg" xmlns:xlink="http://www.w3.org/1999/xlink"><defs></defs><g id="tight-bounds" transform="matrix(1,0,0,1,0.24000150455856328,0.15011261921590346)"><svg viewBox="0 0 395.52 160.69976572273825" height="160.69976572273825" width="395.52"><g><svg viewBox="0 0 395.52 160.69976572273825" height="160.69976572273825" width="395.52"><g transform="matrix(1,0,0,1,0,82.74320841227114)"><svg viewBox="0 0 395.52 77.9565573104671" height="77.9565573104671" width="395.52"><g><svg viewBox="0 0 395.52 77.9565573104671" height="77.9565573104671" width="395.52"><g><svg viewBox="0 0 395.52 77.9565573104671" height="77.9565573104671" width="395.52"><g transform="matrix(1,0,0,1,0,0)"><svg width="395.52" viewBox="1.4198524951934814 -19.989215850830078 242.2705535888672 47.75128173828125" height="77.9565573104671" data-palette-color="#c680ff"><path d="M34.412-15.475c1.194 0.253 2.006 0.745 2.437 1.477 0.431 0.732 0.511 1.74 0.238 3.025v0c-0.539 2.544-0.958 4.458-1.257 5.745v0l-1.561 7.131c-1.037 4.898-1.948 8.525-2.733 10.88-0.785 2.355-1.648 3.92-2.589 4.695-0.936 0.783-2.16 1.015-3.673 0.694v0c-1.161-0.246-2.155-0.845-2.983-1.796-0.822-0.944-1.672-2.402-2.549-4.373-0.877-1.971-2.053-4.963-3.527-8.976v0l-3.751-10.433c-0.22 1.2-0.675 3.428-1.363 6.683v0l-2.557 12.317c-0.178 0.841-0.658 1.483-1.44 1.924-0.782 0.441-1.688 0.552-2.718 0.334v0c-1.03-0.218-1.815-0.681-2.354-1.388-0.546-0.702-0.727-1.49-0.542-2.363v0l2.668-12.601 1.075-5.271c0.158-0.907 0.411-2.182 0.759-3.826v0c0.505-2.387 0.999-4.201 1.479-5.442 0.481-1.241 1.071-2.083 1.772-2.528 0.693-0.439 1.62-0.536 2.781-0.29v0c1.128 0.239 2.081 0.792 2.858 1.658 0.769 0.872 1.589 2.309 2.46 4.313 0.878 1.999 2.138 5.24 3.778 9.724v0c0.874 2.373 2.162 5.977 3.864 10.815v0l0.592 1.74 1.688-7.973 2.943-13.657c0.184-0.867 0.625-1.52 1.324-1.958 0.694-0.446 1.654-0.539 2.881-0.28zM49.823 22.678c-4.139-0.583-7.271-2.129-9.395-4.636-2.123-2.514-2.91-5.725-2.359-9.633v0c0.358-2.542 1.215-4.73 2.572-6.566 1.357-1.842 3.1-3.175 5.229-3.999 2.124-0.832 4.522-1.059 7.195-0.683v0c2.707 0.381 5.006 1.288 6.898 2.719 1.893 1.425 3.257 3.236 4.092 5.434 0.842 2.192 1.08 4.592 0.713 7.2v0c-0.538 3.816-2.146 6.605-4.825 8.369-2.673 1.771-6.046 2.37-10.12 1.795zM50.489 17.238c1.987 0.28 3.604-0.064 4.851-1.033 1.255-0.974 2.039-2.571 2.352-4.789v0c0.307-2.178 0.038-4.118-0.806-5.819-0.839-1.694-2.284-2.685-4.338-2.975v0c-1.921-0.271-3.551 0.213-4.89 1.452-1.339 1.239-2.174 3.033-2.506 5.383v0c-0.321 2.277-0.009 4.075 0.937 5.394 0.946 1.312 2.413 2.107 4.4 2.387zM77.775 25.569c-1.376-0.107-2.609-0.888-3.699-2.344-1.097-1.456-1.979-3.627-2.644-6.514v0c-0.49-2.218-0.87-4.775-1.14-7.671-0.271-2.89-0.353-5.009-0.249-6.358v0c0.109-1.409 0.489-2.336 1.139-2.78 0.643-0.445 1.473-0.628 2.49-0.549v0c1.117 0.087 1.955 0.359 2.514 0.817 0.553 0.451 0.844 1.142 0.872 2.073v0c0.034 1.714 0.097 3.361 0.189 4.94 0.092 1.572 0.241 3.359 0.446 5.36v0c0.312 3.22 0.584 4.84 0.817 4.858v0c0.166 0.013 0.478-0.598 0.934-1.833 0.457-1.235 1.078-3.076 1.863-5.522v0l0.78-2.417c0.353-1.096 0.831-1.925 1.436-2.487 0.605-0.562 1.383-0.805 2.334-0.731v0c0.917 0.071 1.649 0.416 2.197 1.033 0.547 0.624 0.953 1.555 1.217 2.793v0c1.42 6.777 2.329 10.181 2.728 10.211v0c0.126 0.01 0.286-0.366 0.479-1.126 0.193-0.761 0.494-2.098 0.903-4.012v0c0.846-4.093 1.408-7.283 1.685-9.568v0c0.105-0.921 0.487-1.577 1.146-1.968 0.659-0.397 1.531-0.553 2.614-0.469v0c1.21 0.094 2.069 0.482 2.578 1.163 0.508 0.688 0.706 1.753 0.594 3.196v0c-0.102 1.309-0.443 3.245-1.022 5.808-0.573 2.563-1.225 4.923-1.954 7.08v0c-0.895 2.572-1.922 4.598-3.08 6.08-1.151 1.475-2.547 2.149-4.189 2.022v0c-1.768-0.137-3.173-1.293-4.214-3.467-1.034-2.18-1.787-5.532-2.259-10.055v0c-0.93 4.314-1.98 7.499-3.149 9.555-1.163 2.056-2.615 3.017-4.356 2.882zM155.679 7.654c0.593-0.018 1.161 0.238 1.704 0.768 0.543 0.524 0.831 1.329 0.864 2.415v0c0.033 1.086-0.205 1.9-0.716 2.443-0.51 0.542-1.079 0.823-1.705 0.842v0l-0.4 0.012 0.532 9.218c0.065 1.052-0.212 1.894-0.833 2.527-0.628 0.626-1.498 0.956-2.611 0.99v0c-1.086 0.033-1.968-0.23-2.646-0.79-0.677-0.553-1.048-1.322-1.111-2.307v0l-0.58-9.516-12.59 0.184-0.516 10.641c-0.081 1.717-1.241 2.609-3.48 2.677v0c-1.246 0.038-2.19-0.19-2.832-0.684-0.642-0.487-0.945-1.245-0.91-2.273v0l0.478-10.23-0.3 0.01c-0.786 0.024-1.412-0.247-1.875-0.814-0.457-0.56-0.702-1.349-0.733-2.368v0c-0.031-1.02 0.192-1.81 0.668-2.372 0.477-0.555 1.125-0.845 1.944-0.869v0l0.64-0.02 0.633-13.356c0.04-0.888 0.394-1.623 1.063-2.203 0.676-0.581 1.557-0.888 2.643-0.921v0c1.153-0.035 2.036 0.265 2.649 0.899 0.613 0.642 0.903 1.49 0.868 2.545v0l-0.646 12.916 11.898-0.223-0.803-13.212c-0.063-0.985 0.218-1.801 0.846-2.447 0.621-0.639 1.508-0.976 2.66-1.012v0c1.086-0.033 1.965 0.243 2.637 0.83 0.678 0.586 1.048 1.325 1.108 2.218v0l0.812 13.501zM178.731 25.073c-2.978 0.298-5.548-0.003-7.709-0.905-2.155-0.91-3.838-2.299-5.05-4.167-1.218-1.861-1.952-4.035-2.202-6.523v0c-0.249-2.488 0.112-4.765 1.084-6.833 0.965-2.067 2.402-3.742 4.311-5.025 1.902-1.276 4.097-2.039 6.585-2.288v0c2.229-0.223 4.313 0.013 6.252 0.711 1.939 0.697 3.522 1.818 4.749 3.363 1.234 1.551 1.963 3.438 2.185 5.66v0c0.142 1.413-0.013 2.447-0.463 3.102-0.444 0.654-1.272 1.042-2.486 1.163v0l-15.861 1.59c0.079 0.789 0.434 1.558 1.065 2.305 0.638 0.747 1.542 1.343 2.712 1.789 1.17 0.446 2.525 0.591 4.064 0.437v0c1.373-0.138 2.434-0.452 3.182-0.942 0.742-0.49 1.499-1.185 2.273-2.087v0c0.568-0.62 1.177-0.962 1.827-1.028v0c0.756-0.076 1.491 0.139 2.205 0.644 0.708 0.512 1.098 1.126 1.169 1.842v0c0.059 0.59-0.079 1.184-0.414 1.78v0c-0.582 1.15-1.641 2.275-3.18 3.374-1.545 1.093-3.645 1.772-6.298 2.038zM169.683 10.503l12.717-1.274c0.298-0.03 0.483-0.099 0.552-0.206 0.07-0.107 0.091-0.291 0.065-0.55v0c-0.128-1.28-0.849-2.283-2.161-3.009-1.312-0.726-2.867-0.999-4.664-0.819v0c-1.446 0.145-2.672 0.549-3.678 1.213-1.012 0.664-1.757 1.426-2.233 2.284-0.471 0.851-0.67 1.638-0.598 2.361zM205.562-4.825c1.298-0.199 2.547-0.084 3.746 0.346 1.199 0.43 2.21 1.148 3.032 2.156 0.816 1.008 1.335 2.244 1.56 3.706v0c0.324 2.115-0.114 3.855-1.314 5.22-1.206 1.372-2.9 2.225-5.081 2.559v0c-1.14 0.175-1.964 0.126-2.471-0.147-0.507-0.273-0.823-0.815-0.947-1.625v0c-0.12-0.784-0.043-1.356 0.232-1.715 0.282-0.36 0.711-0.618 1.288-0.774v0c1.888-0.485 2.725-1.426 2.511-2.824v0c-0.09-0.586-0.297-1.013-0.621-1.28-0.324-0.267-0.73-0.364-1.218-0.289v0c-0.876 0.134-1.614 0.753-2.214 1.857-0.599 1.11-1.041 2.362-1.326 3.755-0.286 1.393-0.421 2.553-0.407 3.481v0c-0.011 1.465 0.262 4.02 0.821 7.665v0c0.27 1.759 0.203 2.994-0.201 3.703-0.41 0.71-1.252 1.163-2.524 1.358v0c-1.166 0.179-2.088 0.087-2.763-0.274-0.669-0.363-1.093-1.013-1.27-1.95v0l-0.344-2.244-0.869-5.664c-0.319-2.082-0.639-3.837-0.959-5.265-0.315-1.436-0.762-3.276-1.342-5.521v0l-0.504-1.966c-0.19-0.8-0.022-1.507 0.504-2.121 0.52-0.613 1.317-1.001 2.391-1.166v0c1.819-0.279 2.918 0.382 3.299 1.983v0c0.186 0.774 0.422 1.871 0.707 3.291v0c0.418-1.629 1.146-3.015 2.185-4.159 1.04-1.137 2.406-1.836 4.099-2.096zM234.559 16.152c-2.93 0.612-5.517 0.584-7.761-0.085-2.239-0.676-4.06-1.879-5.464-3.609-1.408-1.722-2.368-3.806-2.879-6.253v0c-0.511-2.447-0.393-4.75 0.354-6.909 0.741-2.157 1.993-3.975 3.755-5.453 1.756-1.47 3.858-2.461 6.305-2.972v0c2.193-0.458 4.29-0.443 6.292 0.045 2.002 0.488 3.695 1.435 5.078 2.841 1.391 1.412 2.316 3.211 2.773 5.397v0c0.29 1.39 0.246 2.434-0.132 3.133-0.372 0.697-1.155 1.171-2.35 1.421v0l-15.603 3.259c0.162 0.777 0.597 1.503 1.303 2.18 0.713 0.675 1.675 1.172 2.886 1.491 1.211 0.319 2.573 0.321 4.088 0.005v0c1.351-0.282 2.372-0.707 3.064-1.274 0.686-0.565 1.365-1.337 2.04-2.316v0c0.499-0.676 1.068-1.081 1.707-1.215v0c0.744-0.155 1.498-0.02 2.261 0.407 0.758 0.434 1.211 1.004 1.358 1.708v0c0.121 0.581 0.047 1.185-0.224 1.814v0c-0.456 1.205-1.391 2.436-2.804 3.691-1.421 1.25-3.437 2.148-6.047 2.694zM224.019 2.621l12.51-2.613c0.294-0.061 0.469-0.149 0.528-0.264 0.058-0.114 0.06-0.299 0.007-0.553v0c-0.263-1.259-1.086-2.181-2.468-2.764-1.382-0.583-2.957-0.69-4.725-0.32v0c-1.423 0.297-2.599 0.829-3.528 1.595-0.936 0.768-1.596 1.604-1.98 2.508-0.378 0.896-0.493 1.7-0.344 2.411z" opacity="1" transform="matrix(1,0,0,1,0,0)" fill="#c680ff" class="undefined-text-0" data-fill-palette-color="primary" id="text-0"></path></svg></g></svg></g></svg></g></svg></g><g transform="matrix(1,0,0,1,149.61014893370248,0)"><svg viewBox="0 0 96.299702132595 77.9565573104671" height="77.9565573104671" width="96.299702132595"><g><svg xmlns="http://www.w3.org/2000/svg" xmlns:xlink="http://www.w3.org/1999/xlink" version="1.1" x="0" y="0" viewBox="4.999499797821045 13.572051048278809 90.00077056884766 72.8574447631836" enable-background="new 0 0 100 100" xml:space="preserve" height="77.9565573104671" width="96.299702132595" class="icon-icon-0" data-fill-palette-color="accent" id="icon-0"><g fill="#c680ff" data-fill-palette-color="accent"><path fill="#c680ff" d="M23.81 76.102c-2.362 2.361-2.362 6.192 0 8.556 2.362 2.362 6.193 2.362 8.556 0 2.361-2.363 2.361-6.194 0-8.556C30.003 73.739 26.172 73.739 23.81 76.102zM94.226 14.432l-0.086-0.085c-1.157-1.158-3.192-1-4.544 0.352L66.65 37.643 51.499 22.492 8.754 65.237 6.787 63.27l42.745-42.746c-2.363-2.348-6.183-2.343-8.541 0.015L6.771 54.757c-2.362 2.363-2.362 6.195 0 8.558L20.41 76.951c0.407-0.912 0.983-1.769 1.732-2.517 3.284-3.284 8.608-3.284 11.891 0 0.776 0.774 1.366 1.667 1.775 2.616l35.124-35.125-0.006-0.004 22.945-22.945C95.226 17.623 95.383 15.589 94.226 14.432z" data-fill-palette-color="accent"></path></g></svg></g></svg></g><g></g></svg></g></svg><rect width="395.52" height="160.69976572273825" fill="none" stroke="none" visibility="hidden"></rect></g></svg></g></svg>